<?xml version="1.0" encoding="utf-8"?>
<!-- Generator: Adobe Illustrator 16.0.0, SVG Export Plug-In . SVG Version: 6.00 Build 0)  -->
<!DOCTYPE svg PUBLIC "-//W3C//DTD SVG 1.1//EN" "http://www.w3.org/Graphics/SVG/1.1/DTD/svg11.dtd">
<svg version="1.1" id="Layer_1" xmlns="http://www.w3.org/2000/svg" xmlns:xlink="http://www.w3.org/1999/xlink" x="0px" y="0px"
	 width="400px" height="400px" viewBox="0 0 400 400" enable-background="new 0 0 400 400" xml:space="preserve">
<g>
	
		<image overflow="visible" opacity="0.16" width="448" height="448" xlink:href="3DAF90ABCFC6C336.png"  transform="matrix(1 0 0 1 -24 -24)">
	</image>
	<g>
		<g>
			<path fill="#112C4B" d="M109.827,180.172C49.137,180.172,0.018,229.388,0,290.075C0.016,350.783,49.135,400,109.827,400
				c60.638,0,109.69-49.219,109.718-109.925c0-31.005-0.007-38.566-0.007-38.566h-39.212c0,0,0,7.587,0,38.566
				c-0.036,19.554-7.881,37.064-20.665,49.898c-12.818,12.809-30.298,20.687-49.834,20.687c-19.557,0-37.017-7.881-49.869-20.687
				c-12.788-12.834-20.632-30.345-20.66-49.898c0.027-19.535,7.872-37.043,20.66-49.877c12.852-12.81,30.312-20.667,49.869-20.689
				c36.074,0,142.835,0,180.362,0c60.669,0,109.792-48.877,109.811-109.584C399.981,49.194,350.858,0.021,290.189,0
				C229.54,0.021,180.403,49.194,180.38,109.925c0,30.843-0.027,38.247-0.027,38.247h39.192c0,0,0-7.404,0-38.247
				c0.034-19.534,7.992-37.045,20.81-49.9c12.807-12.786,30.287-20.665,49.835-20.665c19.533,0,37.052,7.878,49.868,20.688
				c12.772,12.833,20.626,30.343,20.626,49.877c0,19.577-7.854,37.066-20.638,49.875c-12.805,12.81-30.323,20.35-49.859,20.372
				H109.827L109.827,180.172z"/>
		</g>
	</g>
</g>
</svg>
